<svg xmlns="http://www.w3.org/2000/svg" viewBox="0 0 48 48"><defs><style>.cls-1{fill:#db5669;}.cls-2{fill:#c4455e;}.cls-3{fill:#f26674;}.cls-4{fill:#dad7e5;}</style></defs><title>Merchandise</title><g id="Merchandise"><path class="cls-1" d="M34,7c-.94,8-31.07,7.88-32,0,0-1.12.82-2.18,2.25-3.07C12.72-1.38,34,1.05,34,7Z"/><path class="cls-2" d="M31,10.5c-6.42,3.33-19.58,3.33-26,0C11.46,7.16,24.59,7.17,31,10.5Z"/><path class="cls-1" d="M33.94,7.51C29.59,44.65,30.26,42.4,28.39,44,22.16,49.36,6,47,6,41L2.06,7.51C3.69,14.8,32.33,14.69,33.94,7.51Z"/><path class="cls-3" d="M33.94,7.51c-1,9-3.55,30.19-3.82,32.47-2.4,3.45-9.37,4.36-13.81,3.89a4,4,0,0,1-3.56-3.73L11,12.4C19.71,14,32.88,12.23,33.94,7.51Z"/><path class="cls-1" d="M46.93,16l-1.08,9a8,8,0,0,1-8,7.05H37a7,7,0,0,0-6.44,4.25c.63-5.32.36-3,1.17-9.95,1.41,2,3.37,1.7,5.71,1.7a4,4,0,0,0,4-3.53l1-9a4,4,0,0,0-4-4.47H37a4,4,0,0,0-3.79,2.74C34,7,33.91,7.74,34,7h5A8,8,0,0,1,46.93,16Z"/><path class="cls-3" d="M39,7H34c-.08.68,0,.25-.23,2H37a8,8,0,0,1,8,9c-1.12,9.34-1,10.43-2.46,12.61A8.06,8.06,0,0,0,45.85,25l1.08-9A8,8,0,0,0,39,7Z"/><path class="cls-3" d="M33,30c2.21,0,4.83.39,6.08-2.37-1,.44-1.32.37-4.08.37a4,4,0,0,1-3.27-1.7l-.39,3.33A4,4,0,0,0,33,30Z"/><path class="cls-3" d="M33.21,13.74c.13-.4.26-.44,0-.33Z"/><path class="cls-3" d="M30.64,35.54c-.14,1.21-.22.73.53-.4C31,35.26,30.82,35.4,30.64,35.54Z"/><path class="cls-4" d="M12,36a1,1,0,0,1-.71-1.71l13-13a1,1,0,0,1,1.42,1.42C11.62,36.79,12.59,36,12,36Z"/><path class="cls-4" d="M23,37a4,4,0,1,1,4-4A4,4,0,0,1,23,37Zm0-6a2,2,0,1,0,2,2A2,2,0,0,0,23,31Z"/><path class="cls-4" d="M14,28a4,4,0,1,1,4-4A4,4,0,0,1,14,28Zm0-6a2,2,0,1,0,2,2A2,2,0,0,0,14,22Z"/></g></svg>